#!OML:ASF I:\Actors\actors\Patient Classification 2\Patient 1\Session 1\actor1.ASF
:FULLY-SPECIFIED
:DEGREES
328
root -1.05022 18.8235 5.6563 4.87696 12.7804 -1.87724
lowerback 12.4747 -0.8275 5.3565
upperback -0.765483 -0.154039 1.74758
thorax -7.8534 -0.255078 -1.13469
lowerneck -23.3911 -6.55626 -8.79083
upperneck 11.8241 -6.74172 3.93595
head 7.85781 -3.22581 1.80471
rclavicle -1.0635e-014 -5.56597e-015
rhumerus 36.4894 15.9313 -66.5211
rradius 46.9784
rwrist -34.6065
rhand -1.8737 -53.8262
rfingers 7.12502
rthumb 23.7945 -82.3727
lclavicle -1.0635e-014 -5.56597e-015
lhumerus 34.786 -32.6825 85.1053
lradius 52.0449
lwrist 54.0927
lhand -20.7577 2.23119
lfingers 7.12502
lthumb 5.60829 32.137
rfemur 5.1236 -10.2196 17.7166
rtibia -1.59028e-015
rfoot -19.1385 -11.0139
rtoes 4.20326
lfemur -13.0979 -8.04535 -9.52532
ltibia 21.6765
lfoot -15.7319 5.42252
ltoes -56.6073
329
root -1.04734 18.8238 5.64873 4.8825 12.7718 -1.86448
lowerback 12.5057 -0.831115 5.38297
upperback -0.744616 -0.154307 1.73756
thorax -7.84877 -0.256096 -1.16019
lowerneck -23.4406 -6.56524 -8.81091
upperneck 11.9627 -6.75895 4.00414
head 7.91717 -3.22829 1.82621
rclavicle -1.0635e-014 2.8625e-014
rhumerus 36.394 15.984 -66.7208
rradius 46.8285
rwrist -34.5277
rhand -1.98998 -53.9344
rfingers 7.12502
rthumb 23.683 -82.4954
lclavicle -1.0635e-014 2.8625e-014
lhumerus 34.5029 -32.728 85.2957
lradius 52.0185
lwrist 54.0704
lhand -20.8129 2.2305
lfingers 7.12502
lthumb 5.55495 32.1377
rfemur 5.09476 -10.2104 17.6916
rtibia 1.59028e-015
rfoot -19.1383 -11.0273
rtoes 4.0499
lfemur -13.1253 -7.96993 -9.54986
ltibia 21.6657
lfoot -15.6722 5.35032
ltoes -56.5707
330
root -1.04454 18.824 5.64074 4.89718 12.762 -1.83325
lowerback 12.5582 -0.84947 5.38985
upperback -0.7316 -0.175836 1.71938
thorax -7.86606 -0.267378 -1.17899
lowerneck -23.4963 -6.51874 -8.67927
upperneck 12.079 -6.72097 3.92222
head 7.95535 -3.21252 1.78171
rclavicle -1.56046e-014 -3.73715e-014
rhumerus 36.4138 16.0575 -67.0383
rradius 46.5894
rwrist -34.4634
rhand -2.20556 -54.0297
rfingers 7.12502
rthumb 23.4762 -82.6173
lclavicle -1.56046e-014 -3.73715e-014
lhumerus 34.2096 -32.7398 85.4593
lradius 51.9755
lwrist 54.0348
lhand -20.8595 2.17756
lfingers 7.12502
lthumb 5.51003 32.0859
rfemur 5.05804 -10.2015 17.6474
rtibia -2.70347e-014
rfoot -19.1431 -11.0515
rtoes 4.11412
lfemur -13.164 -7.71794 -9.60343
ltibia 21.6589
lfoot -15.5534 5.14416
ltoes -56.6123
331
root -1.04148 18.8245 5.63336 4.91228 12.7435 -1.82305
lowerback 12.5855 -0.861042 5.41117
upperback -0.714268 -0.186804 1.71851
thorax -7.86374 -0.273249 -1.18976
lowerneck -23.4539 -6.48152 -8.60607
upperneck 12.0871 -6.68849 3.86699
head 7.94467 -3.20005 1.75727
rclavicle -4.07509e-015 1.66979e-014
rhumerus 36.2871 16.148 -67.2672
rradius 46.4758
rwrist -34.4096
rhand -2.29345 -54.1113
rfingers 7.12502
rthumb 23.3919 -82.7097
lclavicle -4.07509e-015 1.66979e-014
lhumerus 33.9501 -32.7635 85.603
lradius 51.9662
lwrist 54.0178
lhand -20.9244 2.20652
lfingers 7.12502
lthumb 5.44731 32.1165
rfemur 5.01555 -10.1826 17.6254
rtibia 1.43125e-014
rfoot -19.1528 -11.0664
rtoes 4.19202
lfemur -13.1971 -7.63647 -9.62979
ltibia 21.6564
lfoot -15.5464 5.09908
ltoes -56.6007
332
root -1.03827 18.8246 5.62731 4.91392 12.7178 -1.82005
lowerback 12.4998 -0.866652 5.35747
upperback -0.622706 -0.208389 1.77256
thorax -7.71678 -0.275749 -1.09984
lowerneck -23.3268 -6.44437 -8.56674
upperneck 11.9445 -6.6498 3.81346
head 7.87026 -3.1862 1.74245
rclavicle 1.46107e-014 1.11319e-014
rhumerus 36.137 16.2748 -67.3568
rradius 46.4737
rwrist -34.3883
rhand -2.32714 -54.1974
rfingers 7.12502
rthumb 23.3596 -82.7999
lclavicle 1.46107e-014 1.11319e-014
lhumerus 33.8155 -32.7509 85.6927
lradius 51.9734
lwrist 54.0372
lhand -21.0424 2.31599
lfingers 7.12502
lthumb 5.33339 32.2289
rfemur 4.99274 -10.1558 17.6086
rtibia 6.36111e-015
rfoot -19.1538 -11.0456
rtoes 4.29328
lfemur -13.2062 -7.69628 -9.6444
ltibia 21.6574
lfoot -15.5763 5.17127
ltoes -56.6092
333
root -1.03495 18.8246 5.62135 4.9207 12.6966 -1.80691
lowerback 12.2395 -0.888235 5.13064
upperback -0.40773 -0.287424 1.92107
thorax -7.3393 -0.291359 -0.805325
lowerneck -23.2507 -6.34956 -8.49743
upperneck 11.7074 -6.52586 3.70712
head 7.76401 -3.13443 1.71718
rclavicle -7.25564e-015 -2.06736e-014
rhumerus 36.2348 16.4797 -67.3184
rradius 46.4931
rwrist -34.4148
rhand -2.55093 -54.0924
rfingers 7.12502
rthumb 23.1449 -82.722
lclavicle -7.25564e-015 -2.06736e-014
lhumerus 33.8724 -32.5439 85.7439
lradius 51.9498
lwrist 54.0353
lhand -21.0834 2.42105
lfingers 7.12502
lthumb 5.29383 32.3349
rfemur 4.9709 -10.1345 17.5825
rtibia 7.95139e-015
rfoot -19.1458 -11.0381
rtoes 4.37169
lfemur -13.2224 -7.71592 -9.66996
ltibia 21.6668
lfoot -15.5488 5.19885
ltoes -56.6602
334
root -1.03153 18.8251 5.61414 4.96079 12.6767 -1.81862
lowerback 12.2491 -0.889213 5.20575
upperback -0.409663 -0.278133 1.9063
thorax -7.34704 -0.290139 -0.864749
lowerneck -23.269 -6.33252 -8.42702
upperneck 11.8164 -6.51968 3.67069
head 7.79969 -3.13251 1.69368
rclavicle -1.10325e-014 0
rhumerus 35.8968 16.5111 -67.5792
rradius 46.5039
rwrist -34.3464
rhand -2.69755 -54.024
rfingers 7.12502
rthumb 23.0042 -82.6713
lclavicle -1.10325e-014 0
lhumerus 33.609 -32.6352 85.8389
lradius 51.9298
lwrist 54.0834
lhand -21.1007 2.54551
lfingers 7.12502
lthumb 5.27711 32.4598
rfemur 4.90042 -10.1139 17.5897
rtibia 7.95139e-015
rfoot -19.1608 -11.0437
rtoes 4.5147
lfemur -13.2951 -7.69499 -9.66112
ltibia 21.6846
lfoot -15.5284 5.17148
ltoes -56.5826
335
root -1.02904 18.8255 5.60664 4.97436 12.6469 -1.84967
lowerback 12.3019 -0.89627 5.2792
upperback -0.412257 -0.272769 1.90662
thorax -7.38018 -0.290941 -0.906037
lowerneck -23.376 -6.31249 -8.31641
upperneck 12.0108 -6.50328 3.56576
head 7.87389 -3.13025 1.63984
rclavicle -4.96962e-015 7.95139e-016
rhumerus 35.5674 16.5888 -67.8028
rradius 46.4947
rwrist -34.238
rhand -2.58663 -54.1298
rfingers 7.12502
rthumb 23.1106 -82.7637
lclavicle -4.96962e-015 7.95139e-016
lhumerus 33.3632 -32.7346 85.8817
lradius 51.8984
lwrist 54.2278
lhand -21.1858 2.43779
lfingers 7.12502
lthumb 5.19496 32.3541
rfemur 4.85099 -10.0812 17.616
rtibia -1.27222e-014
rfoot -19.1704 -11.0251
rtoes 4.70625
lfemur -13.3467 -7.61948 -9.63303
ltibia 21.7022
lfoot -15.5191 5.10164
ltoes -56.5143
336
root -1.0268 18.8252 5.60007 4.93909 12.6325 -1.86422
lowerback 12.3908 -0.913757 5.32924
upperback -0.400958 -0.282813 1.90336
thorax -7.41957 -0.298335 -0.93491
lowerneck -23.3911 -6.30047 -8.2776
upperneck 12.1423 -6.50196 3.5686
head 7.91961 -3.12826 1.6336
rclavicle 2.79292e-014 -2.22639e-014
rhumerus 35.2297 16.7014 -67.9396
rradius 46.5564
rwrist -34.1922
rhand -2.66697 -54.0723
rfingers 7.12502
rthumb 23.0335 -82.7159
lclavicle 2.79292e-014 -2.22639e-014
lhumerus 33.0959 -32.8074 85.9555
lradius 51.8574
lwrist 54.2948
lhand -21.2387 2.26228
lfingers 7.12502
lthumb 5.14387 32.1798
rfemur 4.8652 -10.063 17.6137
rtibia -6.36111e-015
rfoot -19.1717 -11.0033
rtoes 4.91907
lfemur -13.3357 -7.56134 -9.63278
ltibia 21.7105
lfoot -15.5123 5.05872
ltoes -56.5376
337
root -1.02421 18.8253 5.59301 4.92251 12.6312 -1.84153
lowerback 12.5458 -0.919065 5.42971
upperback -0.448655 -0.266299 1.83855
thorax -7.55911 -0.299096 -1.06103
lowerneck -23.2788 -6.32484 -8.35408
upperneck 12.2341 -6.55793 3.75242
head 7.94564 -3.14169 1.7009
rclavicle 1.37161e-014 -1.11319e-014
rhumerus 34.8007 16.7683 -68.0811
rradius 46.623
rwrist -34.2509
rhand -2.91244 -54.0587
rfingers 7.12502
rthumb 22.798 -82.7315
lclavicle 1.37161e-014 -1.11319e-014
lhumerus 32.7237 -32.9419 86.127
lradius 51.8148
lwrist 54.2847
lhand -21.249 2.36011
lfingers 7.12502
lthumb 5.13396 32.2779
rfemur 4.8682 -10.061 17.5708
rtibia 0
rfoot -19.1597 -11.0102
rtoes 4.93672
lfemur -13.3341 -7.56097 -9.67422
ltibia 21.7105
lfoot -15.5036 5.07649
ltoes -56.5623
